<svg xmlns="http://www.w3.org/2000/svg" viewBox="0 0 143.12 38.94"><path d="M0 38.51V.75h16.27c3.73 0 6.71 1.02 8.94 3.05 2.24 1.99 3.35 4.67 3.35 8.02 0 2.07-.54 3.96-1.61 5.66-1.16 1.7-2.67 2.9-4.53 3.61 1.37.95 2.44 2.11 3.23 3.47.83 1.45 1.24 2.96 1.24 4.53l.25 7.32c0 .41.23.97.68 1.67l.25.43h-4.72l-.12-.25c-.54-.91-.81-1.61-.81-2.11l-.25-7.08c0-1.82-.81-3.31-2.42-4.47-1.49-1.08-3.27-1.61-5.34-1.61H4.72v15.53H0zm4.72-19.75h11.55c2.28 0 4.12-.63 5.53-1.88 1.37-1.29 2.05-2.99 2.05-5.08 0-2.05-.68-3.7-2.05-4.95-1.41-1.25-3.25-1.88-5.53-1.88H4.72v13.79zM31.17 38.51V.75h25.96v4.47H35.89v11.55h18.88v4.47H35.89v12.79h21.24v4.47H31.17z"/><path d="M53 38.51L65.3.75h6.09l12.3 37.76h-4.72l-3.79-11.3H61.51l-3.79 11.3H53zm9.88-15.53h10.93L68.34 6.65l-5.46 16.33zM81.89 19.63c0-5.92 1.41-10.68 4.22-14.29C88.97 1.78 92.74 0 97.42 0c3.69 0 6.87 1.18 9.57 3.54 2.73 2.4 4.26 5.4 4.6 9.01h-4.72c-.21-2.36-1.22-4.35-3.04-5.96-1.82-1.57-3.95-2.36-6.4-2.36-3.4 0-6.11 1.61-8.14 4.84-1.78 2.9-2.67 6.42-2.67 10.56 0 4.06.91 7.52 2.73 10.37 2.03 3.15 4.72 4.72 8.07 4.72 2.77 0 5.01-.83 6.71-2.48 1.74-1.66 2.65-3.87 2.73-6.65h4.72c0 4.06-1.28 7.29-3.85 9.69-2.61 2.44-6.05 3.66-10.31 3.66-4.68 0-8.45-1.76-11.3-5.28-2.82-3.51-4.23-8.19-4.23-14.03zM114.8 38.51V.75h4.72v15.59h18.88V.75h4.72v37.76h-4.72V20.56h-18.88v17.95h-4.72z"/></svg>