<?xml version="1.0" encoding="utf-8"?>
<!-- Generator: Adobe Illustrator 23.0.4, SVG Export Plug-In . SVG Version: 6.00 Build 0)  -->
<svg version="1.1" id="Layer_1" xmlns="http://www.w3.org/2000/svg" xmlns:xlink="http://www.w3.org/1999/xlink" x="0px" y="0px"
	 viewBox="0 0 143.12 38.94" style="enable-background:new 0 0 143.12 38.94;" xml:space="preserve">
<path d="M0,38.51V0.75h16.27c3.73,0,6.71,1.02,8.94,3.05c2.24,1.99,3.35,4.67,3.35,8.02c0,2.07-0.54,3.96-1.61,5.66
	c-1.16,1.7-2.67,2.9-4.53,3.61c1.37,0.95,2.44,2.11,3.23,3.47c0.83,1.45,1.24,2.96,1.24,4.53l0.25,7.32c0,0.41,0.23,0.97,0.68,1.67
	l0.25,0.43h-4.72l-0.12-0.25c-0.54-0.91-0.81-1.61-0.81-2.11l-0.25-7.08c0-1.82-0.81-3.31-2.42-4.47c-1.49-1.08-3.27-1.61-5.34-1.61
	H4.72v15.53H0z M4.72,18.76h11.55c2.28,0,4.12-0.63,5.53-1.88c1.37-1.29,2.05-2.99,2.05-5.08c0-2.05-0.68-3.7-2.05-4.95
	c-1.41-1.25-3.25-1.88-5.53-1.88H4.72V18.76z"/>
<path d="M31.17,38.51V0.75h25.96v4.47H35.89v11.55h18.88v4.47H35.89v12.79h21.24v4.47H31.17z"/>
<path d="M53,38.51L65.3,0.75h6.09l12.3,37.76h-4.72l-3.79-11.3H61.51l-3.79,11.3H53z M62.88,22.98h10.93L68.34,6.65L62.88,22.98z"/>
<path d="M81.89,19.63c0-5.92,1.41-10.68,4.22-14.29C88.97,1.78,92.74,0,97.42,0c3.69,0,6.87,1.18,9.57,3.54
	c2.73,2.4,4.26,5.4,4.6,9.01h-4.72c-0.21-2.36-1.22-4.35-3.04-5.96c-1.82-1.57-3.95-2.36-6.4-2.36c-3.4,0-6.11,1.61-8.14,4.84
	c-1.78,2.9-2.67,6.42-2.67,10.56c0,4.06,0.91,7.52,2.73,10.37c2.03,3.15,4.72,4.72,8.07,4.72c2.77,0,5.01-0.83,6.71-2.48
	c1.74-1.66,2.65-3.87,2.73-6.65h4.72c0,4.06-1.28,7.29-3.85,9.69c-2.61,2.44-6.05,3.66-10.31,3.66c-4.68,0-8.45-1.76-11.3-5.28
	C83.3,30.15,81.89,25.47,81.89,19.63z"/>
<path d="M114.8,38.51V0.75h4.72v15.59h18.88V0.75h4.72v37.76h-4.72V20.56h-18.88v17.95H114.8z"/>
</svg>
